<svg xmlns="http://www.w3.org/2000/svg" width="24" height="24" fill="none" viewBox="0 0 24 24">
    <path stroke="#18A0FB" stroke-linecap="round" stroke-linejoin="round" stroke-width="1.5" d="M22 16.92v3c.001.278-.056.554-.168.81-.111.255-.275.484-.48.672-.205.188-.447.331-.711.42-.264.09-.544.123-.821.098-3.077-.334-6.033-1.386-8.63-3.07-2.416-1.535-4.465-3.584-6-6-1.69-2.609-2.742-5.579-3.07-8.67-.025-.277.008-.555.096-.818.09-.264.232-.505.419-.71.187-.205.415-.37.669-.481.254-.113.528-.17.806-.171h3c.485-.005.956.167 1.324.484.368.316.608.755.676 1.236.127.96.361 1.903.7 2.81.135.358.164.747.084 1.12-.08.375-.265.718-.534.99L8.09 9.91c1.424 2.504 3.496 4.576 6 6l1.27-1.27c.272-.269.615-.454.99-.534.373-.08.762-.05 1.12.084.907.339 1.85.573 2.81.7.486.069.93.313 1.246.688.318.374.486.852.474 1.342z"/>
</svg>
