<svg xmlns="http://www.w3.org/2000/svg" width="152" height="16" fill="none" viewBox="0 0 152 16">
    <path fill="#01BFA5" fill-rule="evenodd" d="M71.073.437c.726-.639 1.831-.57 2.47.156.64.725.57 1.83-.155 2.47-2.672 2.355-5.38 3.861-7.87 4.817 2.49.956 5.198 2.46 7.87 4.816.725.64.795 1.745.155 2.47-.345.392-.828.592-1.313.592-.41 0-.824-.144-1.157-.437-6.75-5.952-13.728-5.617-15.238-5.462v4.1c0 .967-.783 1.75-1.75 1.75-.965 0-1.749-.783-1.749-1.75V1.914c0-.966.784-1.75 1.75-1.75s1.75.784 1.75 1.75v3.984c.663.066 2.378.165 4.641-.236 3.88-.688 7.444-2.446 10.596-5.225zm-21.63 1.477c0-.966-.784-1.75-1.75-1.75H36.409c-4.293 0-7.772 3.48-7.772 7.773 0 4.292 3.48 7.772 7.772 7.772h11.284c.966 0 1.75-.783 1.75-1.75 0-.966-.784-1.75-1.75-1.75H36.409c-2.36 0-4.273-1.912-4.273-4.272 0-2.36 1.913-4.273 4.273-4.273h11.284c.966 0 1.75-.783 1.75-1.75zm-3.226 4.273H36.42c-.967 0-1.75.783-1.75 1.75 0 .966.783 1.75 1.75 1.75h9.798c.967 0 1.75-.784 1.75-1.75 0-.967-.783-1.75-1.75-1.75zM1.75.165h23.484c.966 0 1.75.783 1.75 1.75 0 .965-.784 1.75-1.75 1.75h-9.992v10.357c0 .966-.784 1.75-1.75 1.75s-1.75-.784-1.75-1.75V3.664H1.75C.784 3.664 0 2.88 0 1.914S.784.164 1.75.164zm77.182 0c-.966 0-1.75.783-1.75 1.75v12.044c0 .966.784 1.75 1.75 1.75.967 0 1.75-.784 1.75-1.75V1.914c0-.966-.783-1.75-1.75-1.75zm29.64 8.207c0 2.116-1.722 3.838-3.838 3.838H91.265c-2.116 0-3.837-1.722-3.837-3.838v-.87c0-2.116 1.721-3.838 3.837-3.838h13.469c2.116 0 3.838 1.722 3.838 3.837v.871zM104.734.165H91.265c-4.046 0-7.337 3.291-7.337 7.336v.871c0 4.046 3.291 7.337 7.337 7.337h13.469c4.046 0 7.337-3.291 7.337-7.337v-.87c0-4.046-3.291-7.337-7.337-7.337zm34.715 1.832c0-.914.669-1.73 1.578-1.816 1.044-.1 1.922.718 1.922 1.74v10.514c0 1.009-.431 1.992-1.236 2.602-.981.743-2.256.854-3.334.309-.028-.014-.054-.028-.081-.044L119.53 4.533c-.468-.267-1.049.07-1.049.608v8.881c0 1.023-.878 1.841-1.922 1.741-.91-.086-1.578-.902-1.578-1.816V3.426c0-1.01.433-1.995 1.238-2.605.981-.742 2.254-.851 3.331-.307.028.014.055.028.082.044l18.767 10.768c.468.268 1.05-.07 1.05-.608v-8.72z" clip-rule="evenodd"/>
    <path fill="#818389" fill-rule="evenodd" d="M148.553 0c-1.904 0-3.447 1.543-3.447 3.447 0 1.904 1.543 3.447 3.447 3.447 1.904 0 3.447-1.543 3.447-3.447C152 1.543 150.457 0 148.553 0zm0 .766c1.481 0 2.681 1.2 2.681 2.681 0 1.48-1.2 2.681-2.681 2.681s-2.681-1.2-2.681-2.68c0-1.482 1.2-2.682 2.681-2.682zm-.614 4.213V3.93h.743l.574 1.05h.829l-.653-1.168c.173-.076.308-.188.403-.337.095-.148.142-.328.142-.54 0-.21-.046-.391-.139-.543-.093-.153-.226-.27-.397-.353-.172-.083-.375-.124-.61-.124h-1.652v3.064h.76zm0-1.632v-.835h.727c.349 0 .524.141.524.423 0 .142-.045.246-.134.312-.089.067-.219.1-.39.1h-.727z" clip-rule="evenodd"/>
</svg>
